<?xml version="1.0" standalone="no"?>
<!DOCTYPE svg PUBLIC "-//W3C//DTD SVG 20010904//EN"
 "http://www.w3.org/TR/2001/REC-SVG-20010904/DTD/svg10.dtd">
<svg version="1.0" xmlns="http://www.w3.org/2000/svg"
 width="512.000000pt" height="512.000000pt" viewBox="0 0 512.000000 512.000000"
 preserveAspectRatio="xMidYMid meet">
<metadata>
Created by potrace 1.14, written by Peter Selinger 2001-2017
</metadata>
<g transform="translate(0.000000,512.000000) scale(0.100000,-0.100000)"
fill="#000000" stroke="none">
<path d="M415 5110 c-197 -41 -349 -188 -400 -385 -13 -52 -15 -307 -15 -2165
0 -2303 -4 -2154 57 -2280 38 -78 151 -189 233 -228 36 -16 92 -35 124 -41 84
-15 4208 -15 4292 0 97 18 180 64 260 143 76 76 114 142 139 242 14 54 15 300
13 2190 l-3 2129 -23 59 c-30 81 -73 144 -135 203 -63 59 -106 86 -183 116
l-59 22 -2130 1 c-1172 1 -2148 -2 -2170 -6z m1265 -1220 c116 -22 206 -52
283 -93 70 -37 97 -68 97 -114 0 -41 -48 -138 -87 -175 l-29 -28 -74 36 c-199
95 -300 120 -460 111 -210 -12 -352 -93 -422 -243 -39 -83 -50 -209 -25 -295
41 -141 152 -218 490 -344 153 -57 327 -138 406 -189 239 -154 346 -373 328
-670 -8 -124 -24 -187 -76 -291 -133 -267 -432 -408 -831 -392 -283 12 -552
91 -673 197 -56 50 -61 83 -22 160 28 55 81 120 98 120 7 0 61 -24 122 -54
217 -107 361 -142 560 -133 92 3 134 10 180 27 170 65 269 181 295 347 32 204
-65 361 -294 472 -55 27 -182 82 -281 121 -312 126 -432 196 -520 307 -85 106
-121 200 -135 351 -21 229 48 432 194 570 207 196 528 270 876 202z m2335 9
c186 -28 398 -104 458 -164 20 -20 27 -38 27 -65 0 -47 -63 -175 -97 -197 -24
-16 -28 -15 -121 32 -235 117 -442 150 -705 110 -195 -29 -320 -87 -433 -199
-150 -150 -233 -381 -253 -701 -21 -346 32 -656 152 -875 51 -94 168 -213 252
-257 118 -62 221 -85 407 -90 169 -6 377 8 479 30 l54 12 3 388 2 387 -236 0
c-139 0 -243 4 -254 10 -57 31 -52 248 6 270 14 6 178 10 375 10 382 0 409 -4
429 -55 6 -16 10 -233 10 -567 0 -611 3 -584 -79 -644 -103 -74 -327 -119
-656 -131 -446 -16 -755 82 -971 309 -219 228 -318 548 -318 1023 1 458 85
762 280 1006 166 208 434 336 771 368 110 11 312 6 418 -10z"/>
</g>
</svg>
